<svg xmlns="http://www.w3.org/2000/svg" width="14" height="9" viewBox="0 0 14 9">
  <path id="Fill_22" data-name="Fill 22" d="M13.115,9H.885A.88.88,0,0,1,0,8.211a.857.857,0,0,1,.838-.944H.947v-.62A6.334,6.334,0,0,1,2.015,3.106,6.084,6.084,0,0,1,4.538.942l.029.265.029.264L4.886,4.1a.134.134,0,0,0,.147.12L5.226,4.2l.194-.023a.136.136,0,0,0,.117-.151l-.3-2.7-.028-.252L5.185.826,5.152.534A.492.492,0,0,1,5.266.16.455.455,0,0,1,5.613,0H8.376a.456.456,0,0,1,.245.063.481.481,0,0,1,.229.471L8.817.826l-.028.253-.028.252-.3,2.7a.136.136,0,0,0,.117.151l.193.023.193.023A.134.134,0,0,0,9.116,4.1L9.4,1.467,9.434,1.2,9.463.938A6.084,6.084,0,0,1,11.987,3.1a6.343,6.343,0,0,1,1.068,3.541v.62h.106A.86.86,0,0,1,14,8.212.881.881,0,0,1,13.115,9Z" fill="#fff"/>
</svg>
