<svg xmlns="http://www.w3.org/2000/svg" width="23" height="14" viewBox="0 0 23 14">
  <path id="Fill_22" data-name="Fill 22" d="M21.546,14H1.454A1.42,1.42,0,0,1,.006,12.772,1.361,1.361,0,0,1,1.382,11.3h.174v-.964A9.483,9.483,0,0,1,3.311,4.832,9.867,9.867,0,0,1,7.456,1.465l.048.411.048.411.474,4.1a.217.217,0,0,0,.242.187l.317-.036L8.9,6.5a.214.214,0,0,0,.192-.235L8.609,2.07l-.046-.393-.046-.393L8.464.831A.738.738,0,0,1,8.652.249.765.765,0,0,1,9.221,0h4.54a.783.783,0,0,1,.4.1.736.736,0,0,1,.376.733l-.054.453-.046.393-.046.393-.485,4.193A.214.214,0,0,0,14.1,6.5l.318.036.317.036a.217.217,0,0,0,.242-.188l.474-4.1.048-.411.048-.411a9.866,9.866,0,0,1,4.145,3.367,9.5,9.5,0,0,1,1.755,5.508V11.3h.174a1.367,1.367,0,0,1,1.373,1.475A1.421,1.421,0,0,1,21.546,14Z" fill="#fff"/>
</svg>
