<svg xmlns="http://www.w3.org/2000/svg" width="23" height="27" viewBox="0 0 23 27"><g transform="translate(-1137 -1452)"><g transform="translate(1137 1465)"><path d="M19.1,0H.831A.878.878,0,0,0,0,.914V10.05a.878.878,0,0,0,.831.914H19.1a.877.877,0,0,0,.831-.914V.914A.877.877,0,0,0,19.1,0Z" fill="#263034"/><path d="M1.985,3.654H.876v.965c0,.322-.186.5-.425.5A.471.471,0,0,1,0,4.617V.505A.484.484,0,0,1,.451,0H1.985A1.669,1.669,0,0,1,3.626,1.856,1.654,1.654,0,0,1,1.985,3.654Z" transform="translate(3.621 3.101)" fill="#fff" stroke="rgba(0,0,0,0)" stroke-miterlimit="10" stroke-width="1"/><path d="M1.109,0H0V1.819H1.109a.864.864,0,0,0,.8-.884A.875.875,0,0,0,1.109,0Z" transform="translate(4.498 4.022)" fill="#263034"/><path d="M2.039,5.055H.458A.432.432,0,0,1,0,4.6V.453A.47.47,0,0,1,.458,0H1.979C5.014,0,4.948,5.055,2.039,5.055Z" transform="translate(8.09 3.167)" fill="#fff"/><path d="M1.1,0H0V3.273H1.1C2.9,3.273,2.974,0,1.1,0Z" transform="translate(8.967 4.058)" fill="#263034"/><path d="M2.8.95H.87V2.111H2.563a.54.54,0,0,1,.478.519.476.476,0,0,1-.478.438H.87V4.6a.417.417,0,0,1-.4.453A.441.441,0,0,1,0,4.6V.453A.437.437,0,0,1,.472,0H2.8a.431.431,0,0,1,.464.453A.482.482,0,0,1,2.8.95Z" transform="translate(13.243 3.167)" fill="#fff"/></g><path d="M18.208,6.4,12.994.844A2.869,2.869,0,0,0,11.083,0H2.375A2.46,2.46,0,0,0,0,2.531v8.438a.818.818,0,0,0,.792.844.818.818,0,0,0,.792-.844V2.531a.82.82,0,0,1,.792-.844H9.5a1.638,1.638,0,0,1,1.583,1.688V6.539a1.849,1.849,0,0,0,1.781,1.9h2.969a1.638,1.638,0,0,1,1.583,1.688V24.469a.819.819,0,0,1-.792.844H2.375a.82.82,0,0,1-.792-.844.818.818,0,0,0-.792-.844A.818.818,0,0,0,0,24.469,2.46,2.46,0,0,0,2.375,27h14.25A2.46,2.46,0,0,0,19,24.469V8.438A3.269,3.269,0,0,0,18.208,6.4Z" transform="translate(1141 1452)" fill="#263034"/></g></svg>